<svg id="图层_1" data-name="图层 1" xmlns="http://www.w3.org/2000/svg" viewBox="0 0 121 74"><defs><style>.cls-1{fill:#b5b5b6;}</style></defs><title>logo</title><g id="_编组_" data-name="&lt;编组&gt;"><path id="_路径_" data-name="&lt;路径&gt;" class="cls-1" d="M56.34,3h1.2V18.68H56.49V4.94h-.08l-3.66,8.75L49.17,4.94,49.09,5V18.68H48V3h1.12l3.62,8.61Z"/><path id="_路径_2" data-name="&lt;路径&gt;" class="cls-1" d="M67.44,7.23h1v5.54a41.85,41.85,0,0,0,.44,6.09h-1l-.44-3.35h.12a4.52,4.52,0,0,1-4.19,3.41c-1.75-.06-2.65-1.26-2.71-3.57V7.05h.88v7.79c.06,2.3.67,3.43,1.87,3.37,2.52-.39,3.84-2.52,3.94-6.38V7.23Z"/><path id="_路径_3" data-name="&lt;路径&gt;" class="cls-1" d="M78,9a5.34,5.34,0,0,0-3.19-1.2A2.29,2.29,0,0,0,72.52,9.9c0,1,.87,1.75,2.58,2.32,2.52.81,3.76,2,3.7,3.7-.12,1.89-1.3,2.87-3.52,2.93a7.36,7.36,0,0,1-4.39-1.73l.61-.87a6.34,6.34,0,0,0,3.88,1.89c1.56-.12,2.36-.83,2.4-2.15S77,13.86,75,13.17c-2.4-.75-3.58-1.87-3.52-3.37C71.68,8,72.82,7,74.95,6.87a6,6,0,0,1,3.52,1.2Z"/><path id="_复合路径_" data-name="&lt;复合路径&gt;" class="cls-1" d="M89.24,18a13.56,13.56,0,0,1-4.21.87c-2.93-.06-4.49-2-4.65-5.87.18-4,1.75-6,4.75-6.12q4.22.27,4.31,6.2h-8c.12,3.39,1.34,5.08,3.7,5.08a7.17,7.17,0,0,0,3.7-1.2Zm-.87-5.8Q88.11,8,85,7.67c-2.24.24-3.45,1.73-3.62,4.49Z"/><path id="_路径_4" data-name="&lt;路径&gt;" class="cls-1" d="M98.79,7.23h1v5.54a41.85,41.85,0,0,0,.44,6.09h-1l-.44-3.35h-.06a4.52,4.52,0,0,1-4.19,3.41c-1.75-.06-2.65-1.26-2.71-3.57V7.05h1.06v7.79c.05,2.3.66,3.43,1.86,3.37q3.78-.59,3.95-6.38V7.23Z"/><path id="_路径_5" data-name="&lt;路径&gt;" class="cls-1" d="M103.85,10.57a16,16,0,0,0-.35-3.7h1l.25,1.45a3.48,3.48,0,0,1,2.74-1.45,1.83,1.83,0,0,1,1.8,1.37,3,3,0,0,1,2.39-1.37,2.15,2.15,0,0,1,2.23,2.39v9.41h-1.06V9.29c0-1.08-.45-1.63-1.38-1.63a2.64,2.64,0,0,0-2.15,1.46v9.57h-1.06v-9c.06-1.38-.34-2.07-1.14-2.07a2.65,2.65,0,0,0-2.21,1.73v9.47h-1.06V10.57Z"/></g><g id="_编组_2" data-name="&lt;编组&gt;"><path id="_复合路径_2" data-name="&lt;复合路径&gt;" class="cls-1" d="M38.12,44.79A4.43,4.43,0,0,0,41,46.09c2-.12,3-1.36,3.11-3.7V40.93a4.92,4.92,0,0,1-3.37,1.46c-2.54-.18-3.94-1.89-4.19-5.16.12-3.68,1.61-5.57,4.45-5.69a5,5,0,0,1,3.29,1.3l.26-1.3h1.06a22.75,22.75,0,0,0-.45,5.34v5.67c-.12,2.7-1.57,4.15-4.35,4.39a5.21,5.21,0,0,1-3.48-1.56Zm6-10.77A3.67,3.67,0,0,0,41,32.28c-2,.12-3.07,1.63-3.19,4.57.06,2.76,1.08,4.27,3.11,4.57a4.1,4.1,0,0,0,3.19-1.81Z"/><path id="_复合路径_3" data-name="&lt;复合路径&gt;" class="cls-1" d="M58,43.34H56.81l-1.36-4.76H50.1l-1.44,4.76H47.55L52.74,27ZM50.24,37.7h5l-2.5-8Z"/><path id="_路径_6" data-name="&lt;路径&gt;" class="cls-1" d="M63.53,27.84H60.18V27h4.4V43.34H63.53V27.84Z"/><path id="_路径_7" data-name="&lt;路径&gt;" class="cls-1" d="M71.46,27.84H68.11V27h4.4V43.34H71.46Z"/><path id="_复合路径_4" data-name="&lt;复合路径&gt;" class="cls-1" d="M84.08,42.62a13.56,13.56,0,0,1-4.21.87c-2.93-.06-4.49-2-4.65-5.87.18-4,1.75-6,4.75-6.12q4.22.27,4.31,6.2h-8c.12,3.39,1.34,5.08,3.7,5.08a7.17,7.17,0,0,0,3.7-1.2Zm-.87-5.8q-.27-4.13-3.37-4.49c-2.24.24-3.45,1.73-3.62,4.49Z"/><path id="_路径_8" data-name="&lt;路径&gt;" class="cls-1" d="M88.35,43.34h-1V35.15l-.42-3.62h.92l.42,3.19q1.59-3.29,3.87-3.29c1.58.06,2.39,1.21,2.44,3.44h-.77c.06-1.79-.46-2.71-1.58-2.71-2.43.76-3.73,2.86-3.83,6.35v4.81Z"/><path id="_路径_9" data-name="&lt;路径&gt;" class="cls-1" d="M106.06,31.71l-4.31,11a3.25,3.25,0,0,0-.18.43c-1,2.52-2.21,3.76-3.52,3.7a3,3,0,0,1-2.68-2.24l.87-.43C96.68,45.4,97.29,46,98,46s1.5-.73,2.07-2.15l.95-1.89L97.27,31.71H98.4l3.17,9,3.27-9Z"/></g><g id="_编组_3" data-name="&lt;编组&gt;"><path id="_复合路径_5" data-name="&lt;复合路径&gt;" class="cls-1" d="M16.27,67.11a13.56,13.56,0,0,1-4.21.87c-2.93-.06-4.49-2-4.65-5.87.18-4,1.75-6,4.75-6.12q4.22.27,4.31,6.2h-8c.12,3.39,1.34,5.08,3.7,5.08a7.17,7.17,0,0,0,3.7-1.2Zm-.87-5.8q-.27-4.13-3.37-4.49c-2.22.24-3.45,1.73-3.6,4.49Z"/><path id="_路径_10" data-name="&lt;路径&gt;" class="cls-1" d="M23.5,61.55,28,67.82H26.61l-3.7-5.59-3.7,5.59H17.83l4.56-6.28L18.68,56.2h1.2l3,4.56,2.93-4.56H27Z"/><path id="_路径_11" data-name="&lt;路径&gt;" class="cls-1" d="M29.69,51.44h1.08v7.22h.08a4.44,4.44,0,0,1,3.87-2.76c1.77.24,2.69,1.36,2.75,3.38v8.55h-.88V60.54c-.07-2.46-.7-3.7-2-3.7-2.24.35-3.5,2.07-3.68,5.16v6H29.71V51.44Z"/><path id="_复合路径_6" data-name="&lt;复合路径&gt;" class="cls-1" d="M44.15,57.08H40.81V56.2h4.4V67.82H44.15V57.08Zm1.65-4.3A1.14,1.14,0,0,1,44.68,54a1.17,1.17,0,0,1-1.2-1.2,1.14,1.14,0,0,1,1.2-1.12A1.1,1.1,0,0,1,45.81,52.78Z"/><path id="_复合路径_7" data-name="&lt;复合路径&gt;" class="cls-1" d="M49.09,67.84V52H53c2.52.12,3.85,1.42,4,3.88a3.76,3.76,0,0,1-2.58,3.53,4.26,4.26,0,0,1,3.27,4.22c-.18,2.7-1.5,4.12-4,4.22H49.09Zm2.7-8.65Q55.86,59.1,56,55.8c.06-2-1.07-3-3.39-3H50.14v6.34Zm1.74,7.93a3.21,3.21,0,0,0,3.14-3.3,3.71,3.71,0,0,0-3.74-3.74H50.14v7h3.38Z"/><path id="_复合路径_8" data-name="&lt;复合路径&gt;" class="cls-1" d="M63.86,57.08H60.54V56.2h4.4V67.82H63.88V57.08Zm1.67-4.3A1.14,1.14,0,0,1,64.41,54a1.17,1.17,0,0,1-1.2-1.2,1.14,1.14,0,0,1,1.2-1.12A1.12,1.12,0,0,1,65.54,52.78Z"/><path id="_路径_12" data-name="&lt;路径&gt;" class="cls-1" d="M75.71,57.08H71.46V65c.06,1.5.67,2.24,1.87,2.24a3.21,3.21,0,0,0,2.85-2.07l1,.18a4.22,4.22,0,0,1-3.82,2.58c-2,.06-2.93-1.12-2.93-3.52V57.08H67.76V56.2H70.4V52.32h1.06V56.2h4.23v.88Z"/><path id="_复合路径_9" data-name="&lt;复合路径&gt;" class="cls-1" d="M82.73,57.08H79.39V56.2h4.4V67.82H82.73V57.08Zm1.59-4.3A1.14,1.14,0,0,1,83.2,54a1.17,1.17,0,0,1-1.2-1.2,1.14,1.14,0,0,1,1.2-1.12A1.12,1.12,0,0,1,84.32,52.78Z"/><path id="_复合路径_10" data-name="&lt;复合路径&gt;" class="cls-1" d="M87,62c.06-3.84,1.56-5.87,4.49-6q4.4.35,4.49,6c-.06,3.84-1.56,5.83-4.49,5.95C88.53,67.84,87.06,65.85,87,62Zm7.92,0c-.06-3.39-1.2-5.12-3.45-5.16S88.08,58.63,88,62s1.2,5.2,3.45,5.26S94.85,65.46,94.91,62Z"/><path id="_路径_13" data-name="&lt;路径&gt;" class="cls-1" d="M99.64,68h-.88V61.93c0-1.49,0-2.62-.08-3.43A14.89,14.89,0,0,0,98.33,56h.94l.43,3.35h0a4.63,4.63,0,0,1,4.15-3.46c1.74.06,2.63,1.24,2.69,3.54v8.38h-1.06V60c.17-2.19-.44-3.25-1.76-3.19-2.52.35-3.84,2.4-4.05,6.2Z"/></g><g id="_编组_4" data-name="&lt;编组&gt;"><path id="_路径_14" data-name="&lt;路径&gt;" d="M56.34,3h1.2V18.68H56.49V4.94h-.08l-3.66,8.75L49.17,4.94,49.09,5V18.68H48V3h1.12l3.62,8.61Z"/></g><g id="_编组_5" data-name="&lt;编组&gt;"><path id="_复合路径_11" data-name="&lt;复合路径&gt;" d="M58,43.34H56.79l-1.36-4.76H50.08l-1.44,4.76H47.53L52.72,27ZM50.22,37.7h5l-2.5-8Z"/></g><g id="_编组_6" data-name="&lt;编组&gt;"><polygon id="_路径_15" data-name="&lt;路径&gt;" points="50.14 60.5 50.14 52.84 50.14 51.97 49.09 51.97 49.09 67.82 50.14 67.82 50.14 62.31 50.14 61.36 50.14 60.5"/><path id="_路径_16" data-name="&lt;路径&gt;" d="M52.79,52.83c2.15.06,3.2,1,3.2,3.22s-2.26,3.22-3.93,3.14H50.14v.88h2c3.17,0,4.79-1.36,4.85-3.93s-1.48-4-4.27-4H50.14v.7h2.64Z"/></g></svg>
